
<svg xmlns="http://www.w3.org/2000/svg" viewBox="0 0 32 32" width="32" height="32">
  <defs>
    <linearGradient id="grad1" x1="0%" y1="0%" x2="100%" y2="100%">
      <stop offset="0%" style="stop-color:#6366f1;stop-opacity:1" />
      <stop offset="50%" style="stop-color:#8b5cf6;stop-opacity:1" />
      <stop offset="100%" style="stop-color:#ec4899;stop-opacity:1" />
    </linearGradient>
    <linearGradient id="grad2" x1="0%" y1="0%" x2="100%" y2="100%">
      <stop offset="0%" style="stop-color:#3b82f6;stop-opacity:1" />
      <stop offset="100%" style="stop-color:#06b6d4;stop-opacity:1" />
    </linearGradient>
  </defs>
  
  <!-- Background circle -->
  <circle cx="16" cy="16" r="15" fill="url(#grad1)" stroke="#1e293b" stroke-width="1"/>
  
  <!-- Artistic brush stroke -->
  <path d="M8 12 Q12 8 16 10 Q20 12 24 8 Q26 6 28 8 Q26 10 24 12 Q20 16 16 18 Q12 20 8 18 Q6 16 8 12" 
        fill="none" stroke="url(#grad2)" stroke-width="2" stroke-linecap="round"/>
  
  <!-- Circuit elements -->
  <circle cx="12" cy="20" r="1.5" fill="#fbbf24"/>
  <circle cx="20" cy="12" r="1.5" fill="#fbbf24"/>
  <circle cx="24" cy="20" r="1.5" fill="#fbbf24"/>
  
  <!-- Circuit connections -->
  <line x1="12" y1="20" x2="20" y2="12" stroke="#fbbf24" stroke-width="1"/>
  <line x1="20" y1="12" x2="24" y2="20" stroke="#fbbf24" stroke-width="1"/>
  
  <!-- Creative dots -->
  <circle cx="6" cy="6" r="0.8" fill="#ef4444"/>
  <circle cx="26" cy="6" r="0.8" fill="#10b981"/>
  <circle cx="6" cy="26" r="0.8" fill="#f59e0b"/>
  <circle cx="26" cy="26" r="0.8" fill="#8b5cf6"/>
</svg>
